<svg id="logo" xmlns="http://www.w3.org/2000/svg" width="61.245" height="19.35" viewBox="0 0 61.245 19.35">
  <path id="Path_131" data-name="Path 131" d="M519.828,13.6V16.75a2.6,2.6,0,0,1-2.605,2.6h-1.382a2.6,2.6,0,0,1-2.605-2.6V13.562a3.284,3.284,0,0,1,3.287-3.28H518a.607.607,0,1,0,0-1.213h-.224a4.534,4.534,0,1,1,0-9.068h7.251a2.6,2.6,0,0,1,2.605,2.6V4.238a1.612,1.612,0,0,1-1.821,1.6l-5.3-.688a.607.607,0,1,0-.156,1.2l4.911.637a2.711,2.711,0,0,1,0,5.378l-4.91.635a.607.607,0,0,0-.53.6Z" transform="translate(-466.391 0)" fill="#faf2e7"/>
  <path id="Path_132" data-name="Path 132" d="M7.278,6.349,2.269,7A2.6,2.6,0,0,0,0,9.577V16.75a2.6,2.6,0,0,0,2.605,2.6H3.987a2.6,2.6,0,0,0,2.605-2.6V13.6a.608.608,0,0,1,1.216,0V16.75a2.6,2.6,0,0,0,2.605,2.6h1.382a2.6,2.6,0,0,0,2.605-2.6V13.562a3.284,3.284,0,0,0-3.287-3.28H9.631a.607.607,0,1,1,0-1.213h.225A4.534,4.534,0,1,0,9.856,0H2.605A2.6,2.6,0,0,0,0,2.6V4.238a1.612,1.612,0,0,0,1.821,1.6l5.3-.688a.607.607,0,1,1,.156,1.2Z" transform="translate(0 0)" fill="#faf2e7"/>
  <path id="Path_133" data-name="Path 133" d="M178.907,0h-1.25a6.568,6.568,0,0,0-6.575,6.561v6.228a6.568,6.568,0,0,0,6.575,6.561h1.25a6.568,6.568,0,0,0,6.575-6.561V6.561A6.568,6.568,0,0,0,178.907,0Zm-1.233,13.6V5.748a.608.608,0,1,1,1.216,0V13.6a.608.608,0,0,1-1.216,0Z" transform="translate(-155.468 0)" fill="#faf2e7"/>
  <path id="Path_134" data-name="Path 134" d="M349.984,0h-1.25a6.568,6.568,0,0,0-6.575,6.561v6.228a6.568,6.568,0,0,0,6.575,6.561h1.25a6.568,6.568,0,0,0,6.575-6.561V6.561A6.568,6.568,0,0,0,349.984,0Zm-1.232,13.6V5.748a.608.608,0,0,1,1.216,0V13.6a.608.608,0,1,1-1.216,0Z" transform="translate(-310.93 0)" fill="#faf2e7"/>
</svg>
